# xmcd
#
# Track frame offsets: 
#        188
#        14613
#        34675
#        54003
#
# Disc length: 950 seconds
#
# Revision: 3
# Processed by: cddbd v1.4PL0 Copyright (c) Steve Scherf et al.
# Submitted via: ExactAudioCopy v0.90b4
#
DISCID=2503b404
DTITLE=Cher - Oh No Not My Baby
DYEAR=1992
DGENRE=Pop
TTITLE0=Oh No Not My Baby
TTITLE1=Love On A Rooftop
TTITLE2=Love Hurts
TTITLE3=Main Man
EXTD=
EXTT0=
EXTT1=
EXTT2=
EXTT3=
PLAYORDER=
